<?xml version="1.0" encoding="utf-8"?>
<!-- Generator: Adobe Illustrator 26.0.0, SVG Export Plug-In . SVG Version: 6.00 Build 0)  -->
<svg version="1.1" id="Capa_1" xmlns="http://www.w3.org/2000/svg" xmlns:xlink="http://www.w3.org/1999/xlink" x="0px" y="0px"
	 width="48px" height="48px" viewBox="0 0 48 48" style="enable-background:new 0 0 48 48;" xml:space="preserve">
<style type="text/css">
	.st0{fill:#FFFFFF;}
	.st1{fill:none;stroke:#6B6B6B;stroke-width:1.5;stroke-linecap:round;stroke-linejoin:round;}
	.st2{fill:#6B6B6B;}
</style>
<g id="Grupo_956" transform="translate(20520 13677)">
	<rect id="Rectángulo_88" x="-20520" y="-13677" class="st0" width="48" height="48"/>
	<circle id="Elipse_19" class="st1" cx="-20496.5" cy="-13652.5" r="4"/>
	<g id="Grupo_146" transform="translate(-21110.982 -13926.801)">
		<path id="Trazado_5" class="st2" d="M617.5,290.5h-6.4c-0.3,0-0.5-0.2-0.5-0.5c0,0,0,0,0,0v-3.4c-0.8-0.2-1.6-0.6-2.4-1l-2.4,2.4
			c-0.2,0.2-0.6,0.2-0.8,0c0,0,0,0,0,0l-4.5-4.5c-0.2-0.2-0.2-0.5,0-0.8c0,0,0,0,0,0l2.4-2.4c-0.4-0.8-0.7-1.6-1-2.4h-3.4
			c-0.3,0-0.5-0.2-0.5-0.5c0,0,0,0,0,0v-6.4c0-0.3,0.2-0.5,0.5-0.5l0,0h3.4c0.2-0.8,0.6-1.6,1-2.4l-2.4-2.4c-0.2-0.2-0.2-0.5,0-0.8
			c0,0,0,0,0,0l4.5-4.5c0.2-0.2,0.6-0.2,0.8,0l2.4,2.4c0.8-0.4,1.6-0.7,2.4-1v-3.4c0-0.3,0.2-0.5,0.5-0.5l0,0h6.4
			c0.3,0,0.5,0.2,0.5,0.5c0,0,0,0,0,0v3.4c0.8,0.2,1.6,0.6,2.4,1l2.4-2.4c0.2-0.2,0.6-0.2,0.8,0l4.5,4.5c0.2,0.2,0.2,0.5,0,0.8
			c0,0,0,0,0,0l-2.4,2.4c0.4,0.8,0.7,1.6,1,2.4h3.4c0.3,0,0.5,0.2,0.5,0.5c0,0,0,0,0,0v6.4c0,0.3-0.2,0.5-0.5,0.5l0,0h-3.4
			c-0.2,0.8-0.6,1.6-1,2.4l2.4,2.4c0.2,0.2,0.2,0.5,0,0.8c0,0,0,0,0,0l-4.5,4.5c-0.2,0.2-0.6,0.2-0.8,0c0,0,0,0,0,0l-2.4-2.4
			c-0.8,0.4-1.6,0.7-2.4,1v3.4C618.1,290.2,617.8,290.5,617.5,290.5C617.5,290.5,617.5,290.5,617.5,290.5z M611.6,289.4h5.3v-3.3
			c0-0.2,0.2-0.5,0.4-0.5c1-0.3,2-0.7,2.9-1.2c0.2-0.1,0.5-0.1,0.7,0.1l2.3,2.3l3.8-3.8l-2.3-2.3c-0.2-0.2-0.2-0.4-0.1-0.6
			c0.5-0.9,0.9-1.9,1.2-2.9c0.1-0.2,0.3-0.4,0.5-0.4h3.3v-5.3h-3.3c-0.2,0-0.5-0.2-0.5-0.4c-0.3-1-0.7-2-1.2-2.9
			c-0.1-0.2-0.1-0.5,0.1-0.6l2.3-2.3l-3.8-3.8l-2.3,2.3c-0.2,0.2-0.4,0.2-0.7,0.1c-0.9-0.5-1.9-0.9-2.9-1.2
			c-0.2-0.1-0.4-0.3-0.4-0.5v-3.3h-5.3v3.3c0,0.2-0.2,0.5-0.4,0.5c-1,0.3-2,0.7-2.9,1.2c-0.2,0.1-0.5,0.1-0.7-0.1l-2.3-2.3l-3.8,3.8
			l2.3,2.3c0.2,0.2,0.2,0.4,0.1,0.6c-0.5,0.9-0.9,1.9-1.2,2.9c-0.1,0.2-0.3,0.4-0.5,0.4h-3.3v5.3h3.3c0.2,0,0.5,0.2,0.5,0.4
			c0.3,1,0.7,2,1.2,2.9c0.1,0.2,0.1,0.5-0.1,0.6l-2.3,2.3l3.8,3.8l2.3-2.3c0.2-0.2,0.4-0.2,0.7-0.1c0.9,0.5,1.9,0.9,2.9,1.2
			c0.2,0.1,0.4,0.3,0.4,0.5L611.6,289.4z"/>
		<path id="Trazado_6" class="st2" d="M614.3,284.1c-5.5,0-10-4.5-10-10c0-5.5,4.5-10,10-10c0.3,0,0.5,0.2,0.5,0.5
			c0,0.3-0.2,0.5-0.5,0.5c0,0,0,0,0,0c-4.9,0-8.9,4-8.9,8.9s4,8.9,8.9,8.9c4.9,0,8.9-4,8.9-8.9c0-2.4-0.9-4.6-2.6-6.3
			c-0.2-0.2-0.2-0.6,0-0.8s0.6-0.2,0.8,0c3.9,3.9,3.9,10.2,0,14.2C619.5,283.1,617,284.1,614.3,284.1L614.3,284.1z"/>
	</g>
</g>
</svg>
