<svg xmlns="http://www.w3.org/2000/svg" xmlns:xlink="http://www.w3.org/1999/xlink" width="48" height="48" viewBox="0 0 48 48">
  <defs>
    <clipPath id="clip-path">
      <rect id="Rect치ngulo_1197" data-name="Rect치ngulo 1197" width="31.583" height="32.282" fill="#6B6B6B"/>
    </clipPath>
  </defs>
  <g id="Grupo_951" data-name="Grupo 951" transform="translate(20520 14001)">
    <rect id="Rect치ngulo_91" data-name="Rect치ngulo 91" width="48" height="48" transform="translate(-20520 -14001)" fill="transparent"/>
    <g id="Grupo_941" data-name="Grupo 941" transform="translate(-20510 -13994)">
      <g id="Grupo_796" data-name="Grupo 796" transform="translate(-2 1)" clip-path="url(#clip-path)">
        <path id="Trazado_87" data-name="Trazado 87" d="M30.468,34.321H1.266a.543.543,0,0,1-.543-.543V20.036a.543.543,0,0,1,.543-.542h29.2a.542.542,0,0,1,.543.542v3.072a.543.543,0,1,1-1.085,0V20.578H1.808V33.236H29.925V31.969a.543.543,0,1,1,1.085,0v1.809a.542.542,0,0,1-.543.543" transform="translate(-0.076 -2.039)" fill="#6B6B6B"/>
        <path id="Trazado_88" data-name="Trazado 88" d="M33.88,25.365a.542.542,0,0,1-.543-.543V23.467a.543.543,0,1,1,1.085,0v1.356a.542.542,0,0,1-.543.543" transform="translate(-3.487 -2.398)" fill="#6B6B6B"/>
        <path id="Trazado_89" data-name="Trazado 89" d="M33.88,29.863a.542.542,0,0,1-.543-.543v-2.05a.543.543,0,1,1,1.085,0v2.05a.542.542,0,0,1-.543.543" transform="translate(-3.487 -2.796)" fill="#6B6B6B"/>
        <path id="Trazado_90" data-name="Trazado 90" d="M33.88,33.748a.542.542,0,0,1-.543-.543V31.85a.543.543,0,1,1,1.085,0v1.356a.542.542,0,0,1-.543.543" transform="translate(-3.487 -3.275)" fill="#6B6B6B"/>
        <path id="Trazado_91" data-name="Trazado 91" d="M12.61,32.325H6.38a.543.543,0,0,1-.542-.543,1.494,1.494,0,0,0-1.492-1.492.543.543,0,0,1-.543-.543V24.595a.542.542,0,0,1,.543-.543,1.494,1.494,0,0,0,1.492-1.492.542.542,0,0,1,.542-.543h6.355a.543.543,0,0,1,.461.828,8.507,8.507,0,0,0-1.161,4.427,8.658,8.658,0,0,0,1.047,4.24.543.543,0,0,1-.471.812M6.865,31.24h4.87a10.12,10.12,0,0,1-.785-3.967,9.984,9.984,0,0,1,.878-4.17H6.865a2.585,2.585,0,0,1-1.977,1.976v4.183A2.584,2.584,0,0,1,6.865,31.24" transform="translate(-0.398 -2.303)" fill="#6B6B6B"/>
        <path id="Trazado_92" data-name="Trazado 92" d="M27.785,32.325H21.556a.542.542,0,0,1-.471-.812,8.665,8.665,0,0,0,1.046-4.24,8.5,8.5,0,0,0-1.16-4.427.542.542,0,0,1,.461-.828h6.354a.542.542,0,0,1,.543.543,1.494,1.494,0,0,0,1.492,1.492.542.542,0,0,1,.543.543v5.153a.543.543,0,0,1-.543.543,1.494,1.494,0,0,0-1.492,1.492.543.543,0,0,1-.543.543M22.431,31.24H27.3a2.585,2.585,0,0,1,1.976-1.977V25.079A2.585,2.585,0,0,1,27.3,23.1H22.338a9.984,9.984,0,0,1,.878,4.17,10.136,10.136,0,0,1-.785,3.967" transform="translate(-2.185 -2.303)" fill="#6B6B6B"/>
        <path id="Trazado_93" data-name="Trazado 93" d="M17.335,31.608a2.516,2.516,0,0,1-2.579-2.443.542.542,0,1,1,1.084,0,1.5,1.5,0,1,0,1.494-1.357,2.446,2.446,0,1,1,2.579-2.442.542.542,0,0,1-1.084,0,1.5,1.5,0,1,0-1.494,1.357,2.446,2.446,0,1,1,0,4.884" transform="translate(-1.544 -2.398)" fill="#6B6B6B"/>
        <path id="Trazado_94" data-name="Trazado 94" d="M17.573,32.287a.542.542,0,0,1-.543-.543V22.608a.543.543,0,0,1,1.085,0v9.137a.542.542,0,0,1-.543.543" transform="translate(-1.781 -2.308)" fill="#6B6B6B"/>
        <path id="Trazado_95" data-name="Trazado 95" d="M2.815,13.958a.542.542,0,0,1-.543-.543V12.06a.543.543,0,0,1,1.085,0v1.356a.542.542,0,0,1-.543.543" transform="translate(-0.238 -1.205)" fill="#6B6B6B"/>
        <path id="Trazado_96" data-name="Trazado 96" d="M2.815,17.894a.542.542,0,0,1-.543-.543V16a.543.543,0,0,1,1.085,0v1.356a.542.542,0,0,1-.543.543" transform="translate(-0.238 -1.616)" fill="#6B6B6B"/>
        <path id="Trazado_97" data-name="Trazado 97" d="M5.32,11.869a.542.542,0,0,1-.543-.543V8.792A.543.543,0,0,1,5.32,8.25h.809l-2.18-2.4L1.768,8.25h.809a.543.543,0,0,1,.543.543v2.534a.543.543,0,0,1-1.085,0V9.335H.543a.542.542,0,0,1-.4-.907L3.547,4.676a.56.56,0,0,1,.8,0L7.755,8.428a.542.542,0,0,1-.4.907H5.862v1.991a.542.542,0,0,1-.543.543" transform="translate(0 -0.471)" fill="#6B6B6B"/>
        <path id="Trazado_98" data-name="Trazado 98" d="M5.878,17.894a.542.542,0,0,1-.543-.543V16A.543.543,0,0,1,6.42,16v1.356a.542.542,0,0,1-.543.543" transform="translate(-0.558 -1.616)" fill="#6B6B6B"/>
        <path id="Trazado_99" data-name="Trazado 99" d="M5.878,13.958a.542.542,0,0,1-.543-.543V12.06a.543.543,0,0,1,1.085,0v1.356a.542.542,0,0,1-.543.543" transform="translate(-0.558 -1.205)" fill="#6B6B6B"/>
        <path id="Trazado_100" data-name="Trazado 100" d="M32.332,13.958a.542.542,0,0,1-.543-.543V12.06a.543.543,0,0,1,1.085,0v1.356a.542.542,0,0,1-.543.543" transform="translate(-3.325 -1.205)" fill="#6B6B6B"/>
        <path id="Trazado_101" data-name="Trazado 101" d="M32.332,18.032a.542.542,0,0,1-.543-.543V16.134a.543.543,0,0,1,1.085,0v1.356a.542.542,0,0,1-.543.543" transform="translate(-3.325 -1.631)" fill="#6B6B6B"/>
        <path id="Trazado_102" data-name="Trazado 102" d="M31.774,11.883a.542.542,0,0,1-.543-.543V8.931a.543.543,0,0,1,.543-.543h.809l-2.18-2.4-2.181,2.4h.809a.543.543,0,0,1,.543.543v2.409a.542.542,0,1,1-1.084,0V9.474H27a.543.543,0,0,1-.4-.907L30,4.815a.558.558,0,0,1,.8,0L34.21,8.567a.543.543,0,0,1-.4.907H32.316v1.867a.542.542,0,0,1-.543.543" transform="translate(-2.767 -0.486)" fill="#6B6B6B"/>
        <path id="Trazado_103" data-name="Trazado 103" d="M29.269,18.032a.542.542,0,0,1-.543-.543V16.134a.543.543,0,0,1,1.085,0v1.356a.542.542,0,0,1-.543.543" transform="translate(-3.005 -1.631)" fill="#6B6B6B"/>
        <path id="Trazado_104" data-name="Trazado 104" d="M29.269,13.958a.542.542,0,0,1-.543-.543V12.06a.543.543,0,0,1,1.085,0v1.356a.542.542,0,0,1-.543.543" transform="translate(-3.005 -1.205)" fill="#6B6B6B"/>
        <path id="Trazado_105" data-name="Trazado 105" d="M16.042,9.273A.542.542,0,0,1,15.5,8.73V7.375a.543.543,0,1,1,1.085,0V8.73a.542.542,0,0,1-.543.543" transform="translate(-1.621 -0.715)" fill="#6B6B6B"/>
        <path id="Trazado_106" data-name="Trazado 106" d="M16.042,14.6a.542.542,0,0,1-.543-.543V12.7a.543.543,0,1,1,1.085,0v1.356a.542.542,0,0,1-.543.543" transform="translate(-1.621 -1.272)" fill="#6B6B6B"/>
        <path id="Trazado_107" data-name="Trazado 107" d="M18.547,7.2A.542.542,0,0,1,18,6.659V4.286a.542.542,0,0,1,.543-.543h.809l-2.18-2.4-2.181,2.4H15.8a.542.542,0,0,1,.543.543V6.659a.543.543,0,0,1-1.085,0V4.829H13.77a.542.542,0,0,1-.4-.907L16.774.17a.56.56,0,0,1,.8,0l3.405,3.752a.542.542,0,0,1-.4.907H19.089v1.83a.542.542,0,0,1-.543.543" transform="translate(-1.384 0)" fill="#6B6B6B"/>
        <path id="Trazado_108" data-name="Trazado 108" d="M19.1,14.6a.542.542,0,0,1-.543-.543V12.7a.543.543,0,1,1,1.085,0v1.356a.542.542,0,0,1-.543.543" transform="translate(-1.942 -1.272)" fill="#6B6B6B"/>
        <path id="Trazado_109" data-name="Trazado 109" d="M19.1,9.273a.542.542,0,0,1-.543-.543V7.375a.543.543,0,1,1,1.085,0V8.73a.542.542,0,0,1-.543.543" transform="translate(-1.942 -0.715)" fill="#6B6B6B"/>
      </g>
    </g>
  </g>
</svg>
