<?xml version="1.0" encoding="utf-8"?>
<!-- Generator: Adobe Illustrator 26.0.0, SVG Export Plug-In . SVG Version: 6.00 Build 0)  -->
<svg version="1.1" id="Capa_1" xmlns="http://www.w3.org/2000/svg" xmlns:xlink="http://www.w3.org/1999/xlink" x="0px" y="0px"
	 width="48px" height="48px" viewBox="0 0 48 48" style="enable-background:new 0 0 48 48;" xml:space="preserve">
<style type="text/css">
	.st0{fill:none;}
	.st1{fill:#6B6B6B;}
	.st2{fill:#6B6B6B;stroke:#6B6B6B;stroke-width:0.25;stroke-miterlimit:10;}
</style>
<g id="Grupo_950" transform="translate(20519.999 14055)">
	<g id="base-size" transform="translate(-21108.537 -13978.248)">
		<rect id="Rectángulo_95" x="588.5" y="-76.8" class="st0" width="48" height="48"/>
	</g>
</g>
<g>
	<g>
		<g>
			<path class="st1" d="M33.6,10.7c0-0.3-0.2-0.5-0.5-0.5c-0.3,0-0.5,0.2-0.5,0.5v5.8l-8.1-7.7c-0.2-0.2-0.6-0.2-0.8,0l-16.7,16
				c-0.2,0.2-0.2,0.6,0,0.8c0.1,0.1,0.2,0.2,0.4,0.2c0.1,0,0.3-0.1,0.4-0.2L24.2,10l16.3,15.6c0.1,0.1,0.2,0.2,0.4,0.2
				c0.2,0,0.3-0.1,0.4-0.2c0.1-0.1,0.2-0.3,0.2-0.4c0-0.1-0.1-0.3-0.2-0.4l0,0l-7.7-7.4l0-0.2L33.6,10.7z"/>
		</g>
		<g>
			<path class="st1" d="M13.6,26c0-0.3-0.3-0.6-0.6-0.6s-0.6,0.3-0.6,0.6v13.3c0,0.3,0.3,0.6,0.6,0.6h22.3c0.3,0,0.6-0.3,0.6-0.6V26
				c0-0.3-0.3-0.6-0.6-0.6c-0.3,0-0.6,0.3-0.6,0.6v12.8H13.6V26z"/>
		</g>
	</g>
	<g>
		<g>
			<path class="st2" d="M31.4,34.6H17l0-0.4c0.2-3.1,2.4-5.7,5.5-6.5l0.4-0.1l-0.3-0.2c-1.4-0.7-2.2-2.1-2.2-3.6
				c0-2.2,1.8-3.9,3.9-3.9s3.9,1.8,3.9,3.9c0,1.5-0.9,2.9-2.2,3.6l-0.3,0.2l0.4,0.1c3,0.8,5.2,3.4,5.5,6.5L31.4,34.6z M17.8,33.9
				h12.8c-0.4-2.6-2.3-4.7-4.8-5.4l-1.6-0.4l-1.6,0.4C20,29.1,18.1,31.3,17.8,33.9z M24.2,20.8c-1.8,0-3.2,1.4-3.2,3.2
				c0,1.2,0.7,2.3,1.8,2.9l1.4,0.7l1.4-0.7c1.1-0.5,1.8-1.6,1.8-2.9C27.4,22.2,25.9,20.8,24.2,20.8z"/>
		</g>
	</g>
</g>
</svg>
