<svg xmlns="http://www.w3.org/2000/svg" width="48" height="48" viewBox="0 0 48 48">
  <g id="Grupo_950" data-name="Grupo 950" transform="translate(20519.999 14055)">
    <g id="base-size" transform="translate(-21108.537 -13978.248)">
      <rect id="Rectángulo_95" data-name="Rectángulo 95" width="48" height="48" transform="translate(588.538 -76.752)" fill="transparent"/>
    </g>
    <g id="icon" transform="translate(-21108.598 -13978.248)">
      <g id="Grupo_157" data-name="Grupo 157">
        <path id="Trazado_43" data-name="Trazado 43" d="M620.77-40.908h-4.828a.6.6,0,0,1-.6-.6.6.6,0,0,1,.6-.6h4.45a5.585,5.585,0,0,1,2.124-2.225v-5.04a5.585,5.585,0,0,1-2.124-2.225h-4.45a.6.6,0,0,1-.6-.6.6.6,0,0,1,.6-.6h4.828a.6.6,0,0,1,.551.361,4.375,4.375,0,0,0,2.064,2.17.6.6,0,0,1,.332.538v5.755a.6.6,0,0,1-.333.537,4.377,4.377,0,0,0-2.063,2.17A.6.6,0,0,1,620.77-40.908Z" fill="#6B6B6B"/>
        <path id="Trazado_44" data-name="Trazado 44" d="M606.372-40.908h-4.828a.6.6,0,0,1-.551-.361,4.377,4.377,0,0,0-2.063-2.17.6.6,0,0,1-.333-.537v-5.755a.6.6,0,0,1,.332-.538,4.374,4.374,0,0,0,2.064-2.17.6.6,0,0,1,.551-.361h4.828a.6.6,0,0,1,.6.6.6.6,0,0,1-.6.6h-4.45a5.585,5.585,0,0,1-2.124,2.225v5.04a5.585,5.585,0,0,1,2.124,2.225h4.45a.6.6,0,0,1,.6.6A.6.6,0,0,1,606.372-40.908Z" fill="#6B6B6B"/>
        <path id="Trazado_45" data-name="Trazado 45" d="M612.585-43.251h-2.856a1.042,1.042,0,0,1-1.04-1.04v-.695a.6.6,0,0,1,.6-.6.6.6,0,0,1,.6.6v.534h2.534v-1.8h-2.7a1.041,1.041,0,0,1-1.04-1.039v-2.124a1.042,1.042,0,0,1,1.04-1.04h2.856a1.042,1.042,0,0,1,1.04,1.04v.7a.6.6,0,0,1-.6.6.6.6,0,0,1-.6-.6v-.535H609.89v1.8h2.7a1.041,1.041,0,0,1,1.04,1.039v2.124A1.042,1.042,0,0,1,612.585-43.251Z" fill="#6B6B6B"/>
        <path id="Trazado_46" data-name="Trazado 46" d="M611.157-42.638a.6.6,0,0,1-.6-.6V-50.47a.6.6,0,0,1,.6-.6.6.6,0,0,1,.6.6v7.232A.6.6,0,0,1,611.157-42.638Z" fill="#6B6B6B"/>
        <path id="Trazado_47" data-name="Trazado 47" d="M625.325-38.936H596.989a.6.6,0,0,1-.6-.6V-54.172a.6.6,0,0,1,.6-.6h28.336a.6.6,0,0,1,.6.6v14.636A.6.6,0,0,1,625.325-38.936Zm-27.735-1.2h27.134V-53.572H597.59Z" fill="#6B6B6B"/>
        <path id="Trazado_48" data-name="Trazado 48" d="M629.878-41.257a.6.6,0,0,1-.6-.6V-59H600.222v2.041a.6.6,0,0,1-.373.556.6.6,0,0,1-.655-.135l-4.425-4.5a.6.6,0,0,1,0-.842l4.425-4.5a.6.6,0,0,1,.655-.135.6.6,0,0,1,.373.556v2.041h27.735a.6.6,0,0,1,.6.6.6.6,0,0,1-.6.6H599.622a.6.6,0,0,1-.6-.6V-64.5l-2.983,3.035,2.983,3.035V-59.6a.6.6,0,0,1,.6-.6h30.256a.6.6,0,0,1,.6.6v17.747A.6.6,0,0,1,629.878-41.257Z" fill="#6B6B6B"/>
        <path id="Trazado_49" data-name="Trazado 49" d="M605.412-44.193a.6.6,0,0,1-.6-.6v-4.122a.6.6,0,0,1,.6-.6.6.6,0,0,1,.6.6v4.122A.6.6,0,0,1,605.412-44.193Z" fill="#6B6B6B"/>
        <path id="Trazado_50" data-name="Trazado 50" d="M616.9-44.193a.6.6,0,0,1-.6-.6v-4.122a.6.6,0,0,1,.6-.6.6.6,0,0,1,.6.6v4.122A.6.6,0,0,1,616.9-44.193Z" fill="#6B6B6B"/>
      </g>
    </g>
  </g>
</svg>
