<?xml version="1.0" encoding="utf-8"?>
<!-- Generator: Adobe Illustrator 26.0.0, SVG Export Plug-In . SVG Version: 6.00 Build 0)  -->
<svg version="1.1" id="Capa_1" xmlns="http://www.w3.org/2000/svg" xmlns:xlink="http://www.w3.org/1999/xlink" x="0px" y="0px"
	 width="48px" height="48px" viewBox="0 0 48 48" style="enable-background:new 0 0 48 48;" xml:space="preserve">
<style type="text/css">
	.st0{fill:none;}
	.st1{fill:#6B6B6B;}
</style>
<g id="Grupo_950" transform="translate(20519.999 14055)">
	<g id="base-size" transform="translate(-21108.537 -13978.248)">
		<rect id="Rectángulo_95" x="588.5" y="-76.8" class="st0" width="48" height="48"/>
	</g>
	<g id="icon" transform="translate(-21108.598 -13978.248)">
		<g id="Grupo_157">
			<path id="Trazado_43" class="st1" d="M620.8-40.9h-4.8c-0.3,0-0.6-0.3-0.6-0.6s0.3-0.6,0.6-0.6h4.5c0.5-0.9,1.2-1.7,2.1-2.2v-5
				c-0.9-0.5-1.6-1.3-2.1-2.2h-4.5c-0.3,0-0.6-0.3-0.6-0.6s0.3-0.6,0.6-0.6h4.8c0.2,0,0.5,0.1,0.6,0.4c0.4,0.9,1.1,1.7,2.1,2.2
				c0.2,0.1,0.3,0.3,0.3,0.5v5.8c0,0.2-0.1,0.4-0.3,0.5c-0.9,0.5-1.7,1.2-2.1,2.2C621.2-41,621-40.9,620.8-40.9z"/>
			<path id="Trazado_44" class="st1" d="M606.4-40.9h-4.8c-0.2,0-0.5-0.1-0.6-0.4c-0.4-0.9-1.1-1.7-2.1-2.2
				c-0.2-0.1-0.3-0.3-0.3-0.5v-5.8c0-0.2,0.1-0.4,0.3-0.5c0.9-0.5,1.7-1.2,2.1-2.2c0.1-0.2,0.3-0.4,0.6-0.4h4.8
				c0.3,0,0.6,0.3,0.6,0.6s-0.3,0.6-0.6,0.6h-4.5c-0.5,0.9-1.2,1.7-2.1,2.2v5c0.9,0.5,1.6,1.3,2.1,2.2h4.5c0.3,0,0.6,0.3,0.6,0.6
				C607-41.2,606.7-40.9,606.4-40.9C606.4-40.9,606.4-40.9,606.4-40.9z"/>
			<path id="Trazado_45" class="st1" d="M612.6-43.3h-2.9c-0.6,0-1-0.5-1-1V-45c0-0.3,0.3-0.6,0.6-0.6c0.3,0,0.6,0.3,0.6,0.6v0.5
				h2.5v-1.8h-2.7c-0.6,0-1-0.5-1-1v-2.1c0-0.6,0.5-1,1-1h2.9c0.6,0,1,0.5,1,1v0.7c0,0.3-0.3,0.6-0.6,0.6c-0.3,0-0.6-0.3-0.6-0.6
				v-0.5h-2.5v1.8h2.7c0.6,0,1,0.5,1,1v2.1C613.6-43.7,613.2-43.2,612.6-43.3z"/>
			<path id="Trazado_46" class="st1" d="M611.2-42.6c-0.3,0-0.6-0.3-0.6-0.6v-7.2c0-0.3,0.3-0.6,0.6-0.6c0.3,0,0.6,0.3,0.6,0.6v7.2
				C611.8-42.9,611.5-42.6,611.2-42.6z"/>
			<path id="Trazado_47" class="st1" d="M625.3-38.9H597c-0.3,0-0.6-0.3-0.6-0.6v-14.6c0-0.3,0.3-0.6,0.6-0.6h28.3
				c0.3,0,0.6,0.3,0.6,0.6v14.6C625.9-39.2,625.7-38.9,625.3-38.9z M597.6-40.1h27.1v-13.4h-27.1V-40.1z"/>
			<path id="Trazado_48" class="st1" d="M629.9-41.3c-0.3,0-0.6-0.3-0.6-0.6V-59h-29.1v2c0,0.2-0.1,0.5-0.4,0.6
				c-0.2,0.1-0.5,0-0.7-0.1l-4.4-4.5c-0.2-0.2-0.2-0.6,0-0.8l4.4-4.5c0.2-0.2,0.4-0.2,0.7-0.1c0.2,0.1,0.4,0.3,0.4,0.6v2H628
				c0.3,0,0.6,0.3,0.6,0.6s-0.3,0.6-0.6,0.6h-28.3c-0.3,0-0.6-0.3-0.6-0.6v-1.2l-3,3l3,3v-1.2c0-0.3,0.3-0.6,0.6-0.6h30.3
				c0.3,0,0.6,0.3,0.6,0.6v17.7C630.5-41.5,630.2-41.3,629.9-41.3z"/>
			<path id="Trazado_49" class="st1" d="M605.4-44.2c-0.3,0-0.6-0.3-0.6-0.6v-4.1c0-0.3,0.3-0.6,0.6-0.6c0.3,0,0.6,0.3,0.6,0.6v4.1
				C606-44.5,605.7-44.2,605.4-44.2z"/>
			<path id="Trazado_50" class="st1" d="M616.9-44.2c-0.3,0-0.6-0.3-0.6-0.6v-4.1c0-0.3,0.3-0.6,0.6-0.6c0.3,0,0.6,0.3,0.6,0.6v4.1
				C617.5-44.5,617.2-44.2,616.9-44.2z"/>
		</g>
	</g>
</g>
</svg>
