<svg xmlns="http://www.w3.org/2000/svg" width="48" height="48" viewBox="0 0 48 48">
  <g id="Grupo_953" data-name="Grupo 953" transform="translate(20520 13893)">
    <rect id="Rectángulo_90" data-name="Rectángulo 90" width="48" height="48" transform="translate(-20520 -13893)" fill="transparent"/>
    <g id="Grupo_149" data-name="Grupo 149" transform="translate(-21110.816 -13927.193)">
      <g id="Grupo_147" data-name="Grupo 147">
        <path id="Trazado_7" data-name="Trazado 7" d="M614.316,64.769a6.978,6.978,0,1,1,6.978-6.978A6.986,6.986,0,0,1,614.316,64.769Zm0-12.86a5.882,5.882,0,1,0,5.881,5.882A5.889,5.889,0,0,0,614.316,51.909Z" fill="#6B6B6B"/>
        <path id="Trazado_8" data-name="Trazado 8" d="M600,53.56a3.182,3.182,0,1,1,.907-.132A3.188,3.188,0,0,1,600,53.56Zm0-5.269a2.109,2.109,0,0,0-.594.087,2.084,2.084,0,1,0,.594-.087Z" fill="#6B6B6B"/>
        <path id="Trazado_9" data-name="Trazado 9" d="M628.634,53.56a3.182,3.182,0,1,1,.906-.132A3.187,3.187,0,0,1,628.634,53.56Zm0-5.269a2.114,2.114,0,0,0-.594.087,2.084,2.084,0,1,0,.594-.087Z" fill="#6B6B6B"/>
        <path id="Trazado_10" data-name="Trazado 10" d="M602.34,68.876a.55.55,0,0,1-.546-.5.782.782,0,0,1-.005-.08l-.036-11.2a1.733,1.733,0,0,0-1.517-1.759,1.644,1.644,0,0,0-1.269.436,1.662,1.662,0,0,0-.532,1.226l.035,11.319a.548.548,0,1,1-1.1,0l-.036-11.318a2.758,2.758,0,0,1,2.988-2.76A2.836,2.836,0,0,1,602.85,57.1l.036,11.174a.555.555,0,0,1-.52.6Z" fill="#6B6B6B"/>
        <path id="Trazado_11" data-name="Trazado 11" d="M626.382,68.876a.55.55,0,0,1-.548-.561l0-.041.036-11.175a2.837,2.837,0,0,1,2.525-2.848,2.757,2.757,0,0,1,2.988,2.761l-.036,11.317a.548.548,0,1,1-1.1,0l.035-11.319a1.66,1.66,0,0,0-1.8-1.662,1.733,1.733,0,0,0-1.518,1.759l-.036,11.2c0,.02,0,.048,0,.072A.549.549,0,0,1,626.382,68.876Z" fill="#6B6B6B"/>
        <path id="Trazado_12" data-name="Trazado 12" d="M614.316,51.909H605.67a.549.549,0,1,1,0-1.1h8.646a.549.549,0,0,1,0,1.1Z" fill="#6B6B6B"/>
        <path id="Trazado_13" data-name="Trazado 13" d="M607.161,53.062a.542.542,0,0,1-.335-.115l-1.492-1.152a.55.55,0,0,1,0-.869l1.492-1.153a.549.549,0,0,1,.671.869l-.93.718.93.719a.549.549,0,0,1-.336.983Z" fill="#6B6B6B"/>
        <path id="Trazado_14" data-name="Trazado 14" d="M618.9,49.347h-7.1a.549.549,0,0,1,0-1.1h7.1a.549.549,0,1,1,0,1.1Z" fill="#6B6B6B"/>
        <path id="Trazado_15" data-name="Trazado 15" d="M622.888,64.769h-8.646a.548.548,0,0,1,0-1.1h8.646a.548.548,0,1,1,0,1.1Z" fill="#6B6B6B"/>
        <path id="Trazado_16" data-name="Trazado 16" d="M621.4,65.922a.549.549,0,0,1-.336-.983l.93-.718-.93-.719a.549.549,0,0,1,.671-.868l1.492,1.152a.55.55,0,0,1,0,.869l-1.492,1.153A.545.545,0,0,1,621.4,65.922Z" fill="#6B6B6B"/>
        <path id="Trazado_17" data-name="Trazado 17" d="M616.757,67.332h-7.1a.549.549,0,1,1,0-1.1h7.1a.549.549,0,0,1,0,1.1Z" fill="#6B6B6B"/>
      </g>
      <g id="Grupo_148" data-name="Grupo 148">
        <path id="Trazado_18" data-name="Trazado 18" d="M612.854,57.122a2.282,2.282,0,0,1,1.116.564,1.629,1.629,0,0,1,.3,1.084,1.783,1.783,0,0,1-.505,1.367,2.454,2.454,0,0,1-1.7.475,4.913,4.913,0,0,1-1.742-.258.28.28,0,0,1-.2-.283,1.974,1.974,0,0,1,.1-.476.258.258,0,0,1,.267-.216,1.07,1.07,0,0,1,.3.066,4.361,4.361,0,0,0,1.317.184,1.162,1.162,0,0,0,.784-.188.7.7,0,0,0,.192-.523.688.688,0,0,0-.15-.481,1.342,1.342,0,0,0-.641-.28l-.719-.162a1.762,1.762,0,0,1-1.012-.567,1.744,1.744,0,0,1-.33-1.126,1.725,1.725,0,0,1,.5-1.325,2.372,2.372,0,0,1,1.643-.467,4.877,4.877,0,0,1,1.5.183.265.265,0,0,1,.192.284,2.279,2.279,0,0,1-.075.483c-.039.128-.112.192-.217.192a1.2,1.2,0,0,1-.284-.042,6.25,6.25,0,0,0-1.2-.116,1,1,0,0,0-.688.179.688.688,0,0,0-.188.521.713.713,0,0,0,.137.453,1.111,1.111,0,0,0,.578.292Z" fill="#6B6B6B"/>
        <path id="Trazado_19" data-name="Trazado 19" d="M614.949,61.1c-.055.156-.144.234-.266.234H614.3c-.1,0-.15-.042-.15-.125a.54.54,0,0,1,.042-.192l2.359-6.553q.082-.225.231-.225h.4c.111,0,.166.044.166.133a.651.651,0,0,1-.059.24Z" fill="#6B6B6B"/>
        <path id="Trazado_20" data-name="Trazado 20" d="M618.517,59.929a.6.6,0,0,1-.675.683.589.589,0,0,1-.658-.675q0-.7.675-.7Q618.517,59.237,618.517,59.929Z" fill="#6B6B6B"/>
      </g>
    </g>
  </g>
</svg>
