<svg xmlns="http://www.w3.org/2000/svg" width="48" height="48" viewBox="0 0 48 48">
  <g id="Grupo_952" data-name="Grupo 952" transform="translate(20520 13947)">
    <rect id="Rectángulo_91" data-name="Rectángulo 91" width="48" height="48" transform="translate(-20520 -13947)" fill="transparent"/>
    <g id="Grupo_155" data-name="Grupo 155" transform="translate(-21111.152 -13927.09)">
      <g id="Grupo_153" data-name="Grupo 153">
        <path id="Trazado_30" data-name="Trazado 30" d="M612.282,3.294a3.182,3.182,0,0,1,1.552.784,2.266,2.266,0,0,1,.413,1.509,2.485,2.485,0,0,1-.7,1.9,3.416,3.416,0,0,1-2.373.661,6.852,6.852,0,0,1-2.425-.359.391.391,0,0,1-.278-.395,2.7,2.7,0,0,1,.14-.661.357.357,0,0,1,.371-.3,1.469,1.469,0,0,1,.417.093,6.117,6.117,0,0,0,1.834.255,1.611,1.611,0,0,0,1.09-.262.97.97,0,0,0,.268-.727.956.956,0,0,0-.209-.669,1.858,1.858,0,0,0-.892-.39l-1-.226a2.453,2.453,0,0,1-1.41-.789,2.432,2.432,0,0,1-.458-1.566,2.4,2.4,0,0,1,.7-1.845,3.3,3.3,0,0,1,2.286-.65,6.782,6.782,0,0,1,2.089.255.368.368,0,0,1,.267.395,3.162,3.162,0,0,1-.1.673c-.054.178-.155.267-.3.267a1.7,1.7,0,0,1-.4-.058,8.645,8.645,0,0,0-1.671-.163,1.4,1.4,0,0,0-.958.25.959.959,0,0,0-.26.725.987.987,0,0,0,.19.63,1.549,1.549,0,0,0,.8.407Z" fill="#6B6B6B"/>
        <path id="Trazado_31" data-name="Trazado 31" d="M615.2,8.836c-.078.216-.2.325-.372.325h-.533q-.21,0-.21-.174a.749.749,0,0,1,.059-.267L617.425-.4q.116-.314.322-.313h.552c.154,0,.231.061.231.184a.918.918,0,0,1-.081.334Z" fill="#6B6B6B"/>
        <path id="Trazado_32" data-name="Trazado 32" d="M620.163,7.2a.835.835,0,0,1-.939.951.821.821,0,0,1-.917-.939q0-.975.94-.975Q620.162,6.237,620.163,7.2Z" fill="#6B6B6B"/>
      </g>
      <g id="Grupo_154" data-name="Grupo 154">
        <path id="Trazado_33" data-name="Trazado 33" d="M602.436,4.793a.565.565,0,0,1-.565-.565A12.482,12.482,0,0,1,614.339-8.24a12.4,12.4,0,0,1,10.613,5.922.566.566,0,0,1-.183.778.566.566,0,0,1-.778-.184,11.275,11.275,0,0,0-9.652-5.386A11.351,11.351,0,0,0,603,4.228.564.564,0,0,1,602.436,4.793Z" fill="#6B6B6B"/>
        <path id="Trazado_34" data-name="Trazado 34" d="M614.339,16.7a12.4,12.4,0,0,1-10.614-5.922.565.565,0,0,1,.961-.594,11.279,11.279,0,0,0,9.653,5.387A11.351,11.351,0,0,0,625.677,4.228a.565.565,0,0,1,1.13,0A12.482,12.482,0,0,1,614.339,16.7Z" fill="#6B6B6B"/>
        <path id="Trazado_35" data-name="Trazado 35" d="M627.688-3.236a.6.6,0,0,1-.126-.014l-2.476-.567a.565.565,0,0,1-.425-.676.565.565,0,0,1,.677-.425l1.1.251a14.891,14.891,0,0,0-12.1-6.115.565.565,0,0,1-.565-.565.564.564,0,0,1,.565-.564,16.031,16.031,0,0,1,13.833,7.819.565.565,0,0,1-.027.623A.561.561,0,0,1,627.688-3.236Z" fill="#6B6B6B"/>
        <path id="Trazado_36" data-name="Trazado 36" d="M627.689-3.236a.533.533,0,0,1-.079,0,.564.564,0,0,1-.481-.637l.367-2.638A.562.562,0,0,1,628.133-7a.565.565,0,0,1,.482.637l-.368,2.638A.564.564,0,0,1,627.689-3.236Z" fill="#6B6B6B"/>
        <path id="Trazado_37" data-name="Trazado 37" d="M622.367,18.243a.564.564,0,0,1-.55-.69l.567-2.477a.565.565,0,0,1,1.1.252l-.251,1.1A14.891,14.891,0,0,0,629.349,4.33a.565.565,0,0,1,1.13,0,16.029,16.029,0,0,1-7.82,13.832A.558.558,0,0,1,622.367,18.243Z" fill="#6B6B6B"/>
        <path id="Trazado_38" data-name="Trazado 38" d="M625.006,18.611a.713.713,0,0,1-.079,0l-2.638-.368a.565.565,0,0,1,.156-1.119l2.638.368a.565.565,0,0,1-.077,1.124Z" fill="#6B6B6B"/>
        <path id="Trazado_39" data-name="Trazado 39" d="M614.293,20.359a16.029,16.029,0,0,1-13.833-7.82.565.565,0,0,1,.61-.842l2.476.567a.565.565,0,0,1-.252,1.1l-1.1-.251a14.891,14.891,0,0,0,12.1,6.115.565.565,0,0,1,0,1.13Z" fill="#6B6B6B"/>
        <path id="Trazado_40" data-name="Trazado 40" d="M600.577,15.45a.714.714,0,0,1-.079-.005.564.564,0,0,1-.481-.638l.367-2.638a.565.565,0,0,1,1.119.156l-.368,2.638A.564.564,0,0,1,600.577,15.45Z" fill="#6B6B6B"/>
        <path id="Trazado_41" data-name="Trazado 41" d="M598.717,4.682a.563.563,0,0,1-.564-.564,16.027,16.027,0,0,1,7.82-13.833.563.563,0,0,1,.622.026.566.566,0,0,1,.219.584l-.567,2.476a.565.565,0,0,1-.676.424.565.565,0,0,1-.425-.676l.251-1.1a14.891,14.891,0,0,0-6.115,12.1A.564.564,0,0,1,598.717,4.682Z" fill="#6B6B6B"/>
        <path id="Trazado_42" data-name="Trazado 42" d="M606.265-8.667a.525.525,0,0,1-.079-.005l-2.638-.367a.566.566,0,0,1-.481-.638.562.562,0,0,1,.637-.481l2.638.367a.566.566,0,0,1,.481.638A.564.564,0,0,1,606.265-8.667Z" fill="#6B6B6B"/>
      </g>
    </g>
  </g>
</svg>
